<svg width="24" height="24" viewBox="0 0 24 24" fill="none" xmlns="http://www.w3.org/2000/svg">
<g clip-path="url(#clip0_1_18)">
<path d="M22.7208 9.67712L3.63324 0.258875C2.37593 -0.362501 0.862734 0.173073 0.253303 1.45512C-0.0574403 2.10885 -0.0834303 2.86586 0.181707 3.54019L3.16354 11.1389H24C23.7806 10.4979 23.3205 9.97201 22.7208 9.67712Z" fill="#704EF1"/>
<path d="M3.16352 12.8586L0.181692 20.459C-0.335736 21.7859 0.299734 23.2894 1.60106 23.817C1.8957 23.9365 2.20975 23.9986 2.52682 24C2.90995 24 3.28814 23.9118 3.63317 23.742L22.7207 14.3204C23.3204 14.0254 23.7806 13.4996 23.9999 12.8586H3.16352Z" fill="#704EF1"/>
</g>
<defs>
<clipPath id="clip0_1_18">
<rect width="24" height="24" fill="white"/>
</clipPath>
</defs>
</svg>
