<svg xmlns="http://www.w3.org/2000/svg" width="20" height="20" fill="none"><g clip-path="url(#a)"><path fill="#704EF1" d="M9.978 13.75h.15c1.756 0 3.03-1.281 3.03-3.046v-7.45C13.158 1.43 11.826 0 10.128 0h-.15c-1.73 0-3.136 1.46-3.136 3.255v7.449c0 1.737 1.348 3.046 3.136 3.046ZM8.105 3.255c0-1.105.84-2.004 1.873-2.004h.15c1.008 0 1.767.862 1.767 2.004v7.45c0 1.073-.71 1.795-1.768 1.795h-.15c-1.102 0-1.872-.738-1.872-1.796V3.255Zm7.58 3.62a.629.629 0 0 0-.632.626V10.1c0 3.719-1.342 5.526-4.1 5.526H9.075c-3.608 0-4.128-3.005-4.128-5.525V7.5a.629.629 0 0 0-.631-.625.629.629 0 0 0-.632.625v2.6c0 4.306 1.814 6.775 5.39 6.775h.294v1.875H6.21a.629.629 0 0 0-.631.625c0 .345.283.625.631.625h7.58c.348 0 .631-.28.631-.625a.628.628 0 0 0-.631-.625h-3.158v-1.875h.32c2.447 0 5.364-1.176 5.364-6.776V7.5a.628.628 0 0 0-.632-.624Z"/></g><defs><clipPath id="a"><path fill="#704EF1" d="M0 0h20v20H0z"/></clipPath></defs></svg>
