<svg width="20" height="20" xmlns="http://www.w3.org/2000/svg">
 <defs>
  <clipPath id="a">
   <path id="svg_1" d="m0,0l20,0l0,20l-20,0l0,-20z" fill="#704EF1"/>
  </clipPath>
 </defs>
 <g>
  <title>background</title>
  <rect fill="#ffffff" id="canvas_background" height="22" width="22" y="-1" x="-1"/>
 </g>
 <g>
  <title>Layer 1</title>
  <g id="svg_2" clip-path="url(#a)">
   <path id="svg_3" d="m9.978,13.75l0.15,0c1.756,0 3.03,-1.281 3.03,-3.046l0,-7.45c0,-1.824 -1.332,-3.254 -3.03,-3.254l-0.15,0c-1.73,0 -3.136,1.46 -3.136,3.255l0,7.449c0,1.737 1.348,3.046 3.136,3.046zm-1.873,-10.495c0,-1.105 0.84,-2.004 1.873,-2.004l0.15,0c1.008,0 1.767,0.862 1.767,2.004l0,7.45c0,1.073 -0.71,1.795 -1.768,1.795l-0.15,0c-1.102,0 -1.872,-0.738 -1.872,-1.796l0,-7.449zm7.58,3.62a0.629,0.629 0 0 0 -0.632,0.626l0,2.599c0,3.719 -1.342,5.526 -4.1,5.526l-1.878,0c-3.608,0 -4.128,-3.005 -4.128,-5.525l0,-2.601a0.629,0.629 0 0 0 -0.631,-0.625a0.629,0.629 0 0 0 -0.632,0.625l0,2.6c0,4.306 1.814,6.775 5.39,6.775l0.294,0l0,1.875l-3.158,0a0.629,0.629 0 0 0 -0.631,0.625c0,0.345 0.283,0.625 0.631,0.625l7.58,0c0.348,0 0.631,-0.28 0.631,-0.625a0.628,0.628 0 0 0 -0.631,-0.625l-3.158,0l0,-1.875l0.32,0c2.447,0 5.364,-1.176 5.364,-6.776l0,-2.599a0.628,0.628 0 0 0 -0.632,-0.624l0.001,-0.001z" fill="#704EF1"/>
  </g>
 </g>
</svg>