<svg width="20" height="20" xmlns="http://www.w3.org/2000/svg">
 <defs>
  <clipPath id="a">
   <path id="svg_1" fill="#fff" d="m0,0l20,0l0,20l-20,0l0,-20z"/>
  </clipPath>
 </defs>
 <g>
  <title>background</title>
  <rect fill="#ffffff" id="canvas_background" height="22" width="22" y="-1" x="-1"/>
 </g>
 <g class="layer">
  <title>Layer 1</title>
  <g id="svg_2" clip-path="url(#a)">
   <path id="svg_3" fill="#704EF1" d="m9.98,13.75l0.15,0c1.75,0 3.03,-1.28 3.03,-3.05l0,-7.45c0,-1.82 -1.33,-3.25 -3.03,-3.25l-0.15,0c-1.73,0 -3.14,1.46 -3.14,3.25l0,7.45c0,1.74 1.35,3.05 3.14,3.05zm-1.87,-10.5c0,-1.1 0.84,-2 1.87,-2l0.15,0c1.01,0 1.77,0.86 1.77,2l0,7.45c0,1.08 -0.71,1.8 -1.77,1.8l-0.15,0c-1.1,0 -1.87,-0.74 -1.87,-1.8l0,-7.45zm7.58,3.62a0.63,0.63 0 0 0 -0.64,0.63l0,2.6c0,3.72 -1.34,5.53 -4.1,5.53l-1.88,0c-3.6,0 -4.12,-3.01 -4.12,-5.53l0,-2.6a0.63,0.63 0 0 0 -0.63,-0.62a0.63,0.63 0 0 0 -0.64,0.62l0,2.6c0,4.31 1.82,6.78 5.39,6.78l0.3,0l0,1.87l-3.16,0a0.63,0.63 0 0 0 -0.63,0.63c0,0.34 0.28,0.62 0.63,0.62l7.58,0c0.35,0 0.63,-0.28 0.63,-0.62a0.63,0.63 0 0 0 -0.63,-0.63l-3.16,0l0,-1.87l0.32,0c2.45,0 5.37,-1.18 5.37,-6.78l0,-2.6a0.63,0.63 0 0 0 -0.64,-0.62l0.01,-0.01z"/>
  </g>
  <line y2="2.71" y1="17.64" x2="17.61" x1="2.68" stroke="#704EF1" id="svg_4" fill="none"/>
 </g>
</svg>